<svg width="252" height="80" viewBox="0 0 252 80" fill="none" xmlns="http://www.w3.org/2000/svg">
<path d="M65.661 18.3103V4.70048C65.661 4.62696 65.661 4.55344 65.661 4.47993C65.661 4.33749 65.6656 4.19964 65.661 4.08477C65.5092 2.15955 64.6357 0.923554 62.9942 0.303257C62.4655 0.101086 61.9551 0 61.4678 0C60.4747 0 59.5459 0.422721 58.6999 1.25897C56.0424 3.8826 53.3527 6.58434 50.8193 9.12527C45.1043 14.8596 39.5134 20.4836 33.8857 26.172C33.6236 26.4339 33.2972 26.705 32.8328 26.705C32.373 26.705 32.0374 26.4339 31.7753 26.1674C26.6534 21.0074 21.4946 15.8337 16.5014 10.8345L12.1152 6.43271C11.5129 5.8308 10.9105 5.22428 10.3128 4.61777C9.19557 3.49205 8.05072 2.33416 6.91507 1.21303C6.11965 0.431911 5.21389 0.0321636 4.22536 0.0321636C4.07823 0.0321636 3.93111 0.0367584 3.77938 0.0597324C1.37934 0.34461 0 1.93441 0 4.42019V18.5814C0 29.3929 0 40.1999 0 51.0114C0 52.5874 0.0275867 54.2783 0.2069 55.9416C0.64369 59.9621 1.80693 63.8447 3.67823 67.4838C6.03229 72.074 9.3289 75.9612 13.4761 79.0443C14.3221 79.6738 15.1865 79.977 16.129 79.977C16.3635 79.977 16.6026 79.9586 16.8463 79.9173C18.8877 79.5911 20.4372 77.5096 20.1659 75.4695C20.0004 74.2197 19.4716 73.31 18.5015 72.5978C16.7129 71.2883 15.2646 69.9512 14.0692 68.5084C10.1473 63.762 8.15187 58.3447 8.13348 52.4082C8.11509 43.4438 8.11969 34.3277 8.12888 25.5103V25.4644C8.12888 22.5467 8.12888 19.6336 8.12888 16.7159C8.12888 16.6791 8.12888 16.6424 8.12429 16.6102V16.5918C8.12429 16.555 8.12429 16.5183 8.11969 16.4815C8.1013 16.1094 8.25762 15.8658 8.39096 15.7234C8.58866 15.512 8.87372 15.3926 9.16338 15.3926C9.45304 15.3926 9.72891 15.5212 9.92662 15.751C9.92662 15.751 9.94041 15.7601 9.94041 15.7647L10.037 15.8612C14.1382 19.9782 18.4877 24.3524 22.782 28.6761C23.6418 29.5399 24.6119 29.9627 25.743 29.9673C28.0971 29.9719 30.4511 29.9765 32.7822 29.9765C35.1133 29.9765 37.5823 29.9764 39.9272 29.9627C41.049 29.9627 42.0008 29.5445 42.8468 28.6991C44.8146 26.7279 46.7825 24.7476 48.7457 22.7718C51.0538 20.456 53.3619 18.1357 55.6746 15.8153C55.693 15.7969 55.7068 15.7785 55.7206 15.7647L55.7297 15.751C55.8631 15.5947 56.1068 15.3099 56.5482 15.2226C56.5987 15.2134 56.6493 15.2042 56.6999 15.2042C56.9757 15.2042 57.2378 15.3558 57.3712 15.5993C57.5827 15.9715 57.5551 16.3253 57.5459 16.5413V16.5596C57.5459 16.5872 57.5413 16.6194 57.5413 16.6469C57.5413 28.111 57.5459 40.3285 57.5413 52.5093C57.5413 53.9659 57.3987 55.4132 57.1183 56.8147C55.8125 63.399 52.4607 68.7014 47.1549 72.5932C45.3617 73.9073 44.9158 76.4115 46.1572 78.1713C46.833 79.127 47.8216 79.7565 48.9296 79.9403C49.1457 79.977 49.371 79.9954 49.5871 79.9954C50.4055 79.9954 51.1963 79.7381 51.863 79.2556C56.0838 76.2047 59.4448 72.3221 61.8494 67.7181C64.392 62.8614 65.6748 57.4809 65.6702 51.7328C65.6564 40.5858 65.661 29.2551 65.6656 18.2965L65.661 18.3103Z" fill="#763CBC"/>
<path d="M50.8883 56.645C51.532 55.3493 51.0124 53.7733 49.7296 53.1254C48.4469 52.4775 46.879 53.0014 46.2353 54.2925C45.256 56.2545 43.6606 57.6237 41.7341 58.1383C39.8306 58.6484 37.7984 58.2808 36.0053 57.0999L40.0697 51.2278C40.0697 51.2278 40.0927 51.1956 40.1019 51.1818L40.1111 51.168C40.5525 50.4972 40.8099 49.6977 40.8099 48.8339C40.8099 46.4951 38.9294 44.6021 36.6076 44.6021C34.842 44.6021 33.3385 45.7002 32.7132 47.2487C32.0925 45.6956 30.5845 44.6021 28.8189 44.6021C26.497 44.6021 24.6165 46.4951 24.6165 48.8339C24.6165 49.6977 24.874 50.4972 25.3154 51.168L25.3246 51.1818C25.3338 51.1956 25.3476 51.214 25.3568 51.2278L29.4212 57.0999C27.6281 58.2808 25.5959 58.6484 23.6924 58.1383C21.7659 57.6191 20.1705 56.2545 19.1912 54.2925C18.5475 52.9968 16.9842 52.473 15.6968 53.1254C14.4095 53.7733 13.8945 55.3493 14.5382 56.645C16.1934 59.9671 18.9659 62.3012 22.3498 63.211C23.3613 63.4821 24.3867 63.6153 25.412 63.6153C27.8074 63.6153 30.1937 62.8802 32.3454 61.4466C32.4788 61.3547 32.6029 61.2536 32.7178 61.1433C32.8328 61.2536 32.9523 61.3547 33.0903 61.4466C35.2374 62.8802 37.6237 63.6153 40.0237 63.6153C41.049 63.6153 42.0743 63.4821 43.0858 63.211C46.4698 62.3012 49.2469 59.9717 50.8975 56.645H50.8883Z" fill="#763CBC"/>
<path d="M93.3534 10.1962C95.5788 10.1962 96.7926 11.4644 96.7926 13.5826V14.6394H96.8477C98.6455 11.5195 101.611 9.8792 104.944 9.8792C108.278 9.8792 111.138 11.6758 112.568 15.1173H112.623C114.42 11.7309 117.598 9.8792 121.303 9.8792C126.439 9.8792 130.039 13.4769 130.039 20.3507V34.2086C130.039 36.3223 128.821 37.595 126.6 37.595C124.379 37.595 123.161 36.3268 123.161 34.2086V20.9848C123.161 17.5479 121.257 15.6962 118.554 15.6962C115.643 15.6962 113.418 17.8098 113.418 22.3081V34.2086C113.418 36.3223 112.2 37.595 109.979 37.595C107.758 37.595 106.54 36.3268 106.54 34.2086V20.9848C106.54 17.5479 104.636 15.6962 101.933 15.6962C99.0225 15.6962 96.7972 17.8098 96.7972 22.3081V34.2086C96.7972 36.3223 95.5282 37.595 93.358 37.595C91.1879 37.595 89.9189 36.3268 89.9189 34.2086V13.578C89.9189 11.4644 91.1373 10.1916 93.358 10.1916L93.3534 10.1962Z" fill="#1CB600"/>
<path d="M147.823 21.0905H150.895V20.0842C150.895 17.2814 149.308 15.6916 146.499 15.6916C144.062 15.6916 142.637 16.8036 141.681 17.6995C140.885 18.4393 139.989 19.1285 138.77 19.1285C137.129 19.1285 135.699 17.8052 135.699 16.1143C135.699 12.9945 140.568 9.8746 146.922 9.8746C153.594 9.8746 157.667 13.261 157.667 19.4502V34.2086C157.667 36.3223 156.449 37.595 154.279 37.595C152.109 37.595 150.89 36.3268 150.89 34.2086V32.674H150.835C149.249 36.1109 146.122 37.9121 142.315 37.9121C137.18 37.9121 133.846 34.6865 133.846 29.8206C133.846 24.5825 137.814 21.0905 147.819 21.0905H147.823ZM144.752 32.7797C148.297 32.7797 150.89 30.2939 150.89 26.4848V25.6394H148.03C142.315 25.6394 140.674 27.2797 140.674 29.4484C140.674 31.6172 142.154 32.7797 144.747 32.7797H144.752Z" fill="#1CB600"/>
<path d="M161.745 31.9342C161.745 30.2939 163.014 28.9706 164.711 28.9706C165.718 28.9706 166.564 29.4484 167.677 30.4501C168.895 31.5069 170.431 32.5132 172.863 32.5132C175.295 32.5132 176.408 31.4564 176.408 29.9217C176.408 28.387 175.35 27.3808 171.484 26.4848C164.656 24.8444 161.902 21.8303 161.902 17.8604C161.902 13.1507 165.819 9.8746 172.274 9.8746C177.939 9.8746 182.173 12.4661 182.173 15.4297C182.173 17.0701 180.849 18.3382 179.208 18.3382C178.201 18.3382 177.355 17.8604 176.454 17.0149C175.553 16.1695 174.228 15.2689 172.058 15.2689C169.727 15.2689 168.725 16.2752 168.725 17.649C168.725 19.1285 169.732 20.1348 173.911 21.1916C180.583 22.8319 183.332 25.5842 183.332 29.7057C183.332 34.3097 179.626 37.9029 172.532 37.9029C166.339 37.9029 161.732 35.0449 161.732 31.925L161.745 31.9342Z" fill="#1CB600"/>
<path d="M193.029 3.05133C195.254 3.05133 196.468 4.31949 196.468 6.4377V10.6695H201.075C202.873 10.6695 203.935 11.7263 203.935 13.578C203.935 15.4297 202.877 16.4865 201.075 16.4865H196.468V28.9154C196.468 31.0842 197.42 31.9296 198.693 31.9296C199.857 31.9296 200.652 31.1899 201.765 31.1899C203.194 31.1899 204.413 32.3523 204.413 33.9927C204.413 36.4279 201.714 37.9075 198.008 37.9075C192.822 37.9075 189.594 34.8933 189.594 29.4438V16.4819H187.369C185.571 16.4819 184.509 15.4251 184.509 13.5734C184.509 11.7217 185.567 10.6649 187.369 10.6649H189.594V6.4377C189.594 4.31949 190.813 3.05133 193.033 3.05133H193.029Z" fill="#1CB600"/>
<path d="M219.075 9.87461C226.381 9.87461 231.25 14.69 231.25 21.6189C231.25 24.3161 229.82 25.6394 227.65 25.6394H212.882C213.36 29.7103 215.953 31.9848 219.604 31.9848C221.613 31.9848 222.781 31.2955 224.156 30.1882C225.057 29.499 225.903 28.9706 226.96 28.9706C228.547 28.9706 229.871 30.1882 229.871 31.8791C229.871 34.8427 225.636 37.9075 219.604 37.9075C211.296 37.9075 205.788 32.4075 205.788 23.8887C205.788 15.37 211.241 9.87001 219.075 9.87001V9.87461ZM224.845 21.0905C224.528 17.5479 222.252 15.5354 219.075 15.5354C215.898 15.5354 213.305 17.7593 212.882 21.0905H224.845Z" fill="#1CB600"/>
<path d="M238.662 10.1962C240.887 10.1962 242.101 11.4644 242.101 13.5826V14.9565H242.156C243.637 11.7309 246.124 10.3525 248.616 10.3525C250.841 10.3525 252.005 11.4644 252.005 13.4218C252.005 15.3792 250.841 16.5417 248.248 16.5417H247.508C244.119 16.5417 242.11 18.2877 242.11 22.8871V34.1535C242.11 36.2166 240.892 37.4847 238.671 37.4847C236.45 37.4847 235.232 36.2166 235.232 34.1535V13.578C235.232 11.4644 236.45 10.1917 238.671 10.1917L238.662 10.1962Z" fill="#1CB600"/>
<path d="M88.5901 46.9684C88.5901 45.1167 89.6476 44.0599 91.4499 44.0599H106.112C108.227 44.0599 109.607 45.4337 109.607 47.4968C109.607 48.8706 109.023 49.932 107.597 51.6735L96.7466 64.6354V64.6905H107.225C109.023 64.6905 110.085 65.7473 110.085 67.599C110.085 69.4507 109.027 70.5075 107.225 70.5075H91.5557C89.4407 70.5075 88.0614 69.1337 88.0614 67.0706C88.0614 65.6417 88.6959 64.7962 89.6476 63.6337L101.133 49.932V49.8769H91.4453C89.6476 49.8769 88.5855 48.8201 88.5855 46.9684H88.5901Z" fill="#1CB600"/>
<path d="M125.115 43.265C133.106 43.265 138.72 48.8706 138.72 57.2837C138.72 65.6968 133.11 71.3024 125.115 71.3024C117.119 71.3024 111.51 65.6968 111.51 57.2837C111.51 48.8706 117.119 43.265 125.115 43.265ZM125.115 65.4303C128.766 65.4303 131.625 62.5723 131.625 57.2837C131.625 51.9951 128.766 49.1371 125.115 49.1371C121.464 49.1371 118.604 51.9951 118.604 57.2837C118.604 62.5723 121.464 65.4303 125.115 65.4303Z" fill="#1CB600"/>
<path d="M155.341 43.265C163.332 43.265 168.946 48.8706 168.946 57.2837C168.946 65.6968 163.336 71.3024 155.341 71.3024C147.345 71.3024 141.736 65.6968 141.736 57.2837C141.736 48.8706 147.345 43.265 155.341 43.265ZM155.341 65.4303C158.991 65.4303 161.851 62.5723 161.851 57.2837C161.851 51.9951 158.991 49.1371 155.341 49.1371C151.69 49.1371 148.83 51.9951 148.83 57.2837C148.83 62.5723 151.69 65.4303 155.341 65.4303Z" fill="#1CB600"/>
</svg>
