<svg width="196" height="64" viewBox="0 0 196 64" fill="none" xmlns="http://www.w3.org/2000/svg">
<path d="M50.8902 15.0565V4.3616C50.8902 4.30383 50.8902 4.24605 50.8902 4.18828C50.8902 4.07635 50.8937 3.96803 50.8902 3.87776C50.7726 2.36487 50.0955 1.39359 48.8233 0.906139C48.4135 0.747267 48.018 0.667831 47.6403 0.667831C46.8706 0.667831 46.1507 1.00002 45.4951 1.65717C43.4354 3.71889 41.3507 5.84199 39.3872 7.83872C34.9578 12.3449 30.6246 16.7644 26.2629 21.2345C26.0598 21.4403 25.8068 21.6533 25.4469 21.6533C25.0905 21.6533 24.8304 21.4403 24.6273 21.2309C20.6575 17.176 16.6593 13.1104 12.7894 9.18191L9.38979 5.72284C8.92297 5.24983 8.45616 4.77322 7.9929 4.2966C7.12698 3.41198 6.23967 2.50208 5.35949 1.62106C4.743 1.00724 4.041 0.693106 3.27485 0.693106C3.16081 0.693106 3.04678 0.696717 2.92919 0.714771C1.06905 0.938635 0 2.18794 0 4.14134V15.2696C0 23.7656 0 32.258 0 40.754C0 41.9925 0.0213809 43.3213 0.160357 44.6283C0.498888 47.7877 1.40045 50.8388 2.85079 53.6985C4.6753 57.3056 7.23032 60.3602 10.4446 62.783C11.1003 63.2777 11.7702 63.516 12.5007 63.516C12.6825 63.516 12.8678 63.5016 13.0566 63.4691C14.6388 63.2127 15.8397 61.577 15.6295 59.9739C15.5012 58.9918 15.0914 58.2768 14.3395 57.7172C12.9533 56.6881 11.8308 55.6374 10.9043 54.5036C7.86462 50.7738 6.31806 46.5167 6.30381 41.8517C6.28956 34.8072 6.29312 27.6435 6.30025 20.7145V20.6784C6.30025 18.3856 6.30025 16.0964 6.30025 13.8036C6.30025 13.7747 6.30025 13.7459 6.29668 13.7206V13.7061C6.29668 13.6772 6.29668 13.6484 6.29312 13.6195C6.27887 13.327 6.40002 13.1356 6.50337 13.0237C6.6566 12.8576 6.87753 12.7637 7.10203 12.7637C7.32653 12.7637 7.54034 12.8648 7.69357 13.0454C7.69357 13.0454 7.70426 13.0526 7.70426 13.0562L7.77909 13.132C10.9577 16.3672 14.3288 19.8046 17.6571 23.2023C18.3235 23.8811 19.0754 24.2133 19.952 24.2169C21.7765 24.2205 23.601 24.2242 25.4077 24.2242C27.2144 24.2242 29.128 24.2242 30.9453 24.2133C31.8148 24.2133 32.5525 23.8848 33.2081 23.2204C34.7333 21.6714 36.2585 20.1152 37.7801 18.5626C39.569 16.7428 41.3578 14.9193 43.1503 13.0959C43.1645 13.0815 43.1752 13.067 43.1859 13.0562L43.193 13.0454C43.2964 12.9226 43.4852 12.6987 43.8273 12.6301C43.8665 12.6229 43.9057 12.6157 43.9449 12.6157C44.1587 12.6157 44.3619 12.7349 44.4652 12.9262C44.6291 13.2187 44.6077 13.4967 44.6006 13.6664V13.6809C44.6006 13.7025 44.5971 13.7278 44.5971 13.7495C44.5971 22.7582 44.6006 32.3591 44.5971 41.9311C44.5971 43.0757 44.4866 44.2131 44.2692 45.3144C43.2572 50.4885 40.6594 54.6553 36.5471 57.7136C35.1574 58.7462 34.8117 60.7141 35.7739 62.097C36.2977 62.848 37.0638 63.3427 37.9226 63.4871C38.0901 63.516 38.2647 63.5304 38.4322 63.5304C39.0665 63.5304 39.6794 63.3282 40.1961 62.9491C43.4674 60.5516 46.0723 57.5005 47.936 53.8826C49.9067 50.0661 50.9009 45.8379 50.8973 41.3209C50.8866 32.5613 50.8902 23.6573 50.8937 15.0457L50.8902 15.0565Z" fill="#763CBC"/>
<path d="M39.4407 45.1811C39.9396 44.1628 39.5369 42.9244 38.5427 42.4153C37.5485 41.9061 36.3333 42.3178 35.8344 43.3324C35.0754 44.8742 33.8389 45.9502 32.3458 46.3546C30.8705 46.7553 29.2954 46.4665 27.9057 45.5385L31.0558 40.924C31.0558 40.924 31.0736 40.8988 31.0807 40.8879L31.0879 40.8771C31.43 40.3499 31.6295 39.7217 31.6295 39.0428C31.6295 37.205 30.1721 35.7174 28.3725 35.7174C27.0041 35.7174 25.8389 36.5803 25.3542 37.7972C24.8732 36.5767 23.7043 35.7174 22.336 35.7174C20.5364 35.7174 19.0789 37.205 19.0789 39.0428C19.0789 39.7217 19.2785 40.3499 19.6206 40.8771L19.6277 40.8879C19.6348 40.8988 19.6455 40.9132 19.6526 40.924L22.8028 45.5385C21.413 46.4665 19.8379 46.7553 18.3627 46.3546C16.8696 45.9465 15.633 44.8742 14.874 43.3324C14.3751 42.3142 13.1635 41.9025 12.1658 42.4153C11.168 42.9244 10.7689 44.1628 11.2678 45.1811C12.5506 47.7916 14.6994 49.6259 17.3221 50.3408C18.1061 50.5538 18.9007 50.6585 19.6954 50.6585C21.552 50.6585 23.4014 50.0808 25.0691 48.9543C25.1725 48.8821 25.2687 48.8026 25.3578 48.716C25.4469 48.8026 25.5395 48.8821 25.6464 48.9543C27.3106 50.0808 29.16 50.6585 31.0202 50.6585C31.8148 50.6585 32.6095 50.5538 33.3935 50.3408C36.0162 49.6259 38.1685 47.7952 39.4478 45.1811H39.4407Z" fill="#763CBC"/>
<path d="M72.3531 8.68032C74.0778 8.68032 75.0186 9.67688 75.0186 11.3414V12.1719H75.0613C76.4547 9.72021 78.7531 8.43118 81.3366 8.43118C83.9202 8.43118 86.1367 9.84297 87.2449 12.5474H87.2877C88.681 9.8863 91.1434 8.43118 94.0155 8.43118C97.9959 8.43118 100.786 11.2584 100.786 16.66V27.5499C100.786 29.2109 99.8418 30.211 98.1207 30.211C96.3995 30.211 95.4552 29.2145 95.4552 27.5499V17.1583C95.4552 14.4575 93.9799 13.0024 91.8846 13.0024C89.6289 13.0024 87.9041 14.6633 87.9041 18.1982V27.5499C87.9041 29.2109 86.9598 30.211 85.2387 30.211C83.5175 30.211 82.5732 29.2145 82.5732 27.5499V17.1583C82.5732 14.4575 81.0979 13.0024 79.0026 13.0024C76.7469 13.0024 75.0221 14.6633 75.0221 18.1982V27.5499C75.0221 29.2109 74.0386 30.211 72.3566 30.211C70.6747 30.211 69.6912 29.2145 69.6912 27.5499V11.3378C69.6912 9.67688 70.6355 8.67671 72.3566 8.67671L72.3531 8.68032Z" fill="#1CB600"/>
<path d="M114.57 17.2413H116.95V16.4506C116.95 14.2481 115.721 12.9988 113.543 12.9988C111.655 12.9988 110.55 13.8725 109.809 14.5766C109.192 15.158 108.498 15.6996 107.553 15.6996C106.281 15.6996 105.173 14.6597 105.173 13.3309C105.173 10.8793 108.947 8.42758 113.871 8.42758C119.042 8.42758 122.199 11.0887 122.199 15.9523V27.5499C122.199 29.2109 121.255 30.211 119.573 30.211C117.891 30.211 116.947 29.2145 116.947 27.5499V26.344H116.904C115.674 29.0448 113.251 30.4602 110.301 30.4602C106.32 30.4602 103.737 27.9255 103.737 24.1017C103.737 19.9855 106.812 17.2413 114.566 17.2413H114.57ZM112.189 26.427C114.937 26.427 116.947 24.4736 116.947 21.4803V20.816H114.73C110.301 20.816 109.028 22.105 109.028 23.8092C109.028 25.5135 110.176 26.427 112.186 26.427H112.189Z" fill="#1CB600"/>
<path d="M125.36 25.7626C125.36 24.4736 126.343 23.4337 127.658 23.4337C128.439 23.4337 129.094 23.8092 129.957 24.5964C130.901 25.4268 132.091 26.2176 133.976 26.2176C135.862 26.2176 136.724 25.3871 136.724 24.1811C136.724 22.9752 135.904 22.1844 132.907 21.4803C127.616 20.1913 125.481 17.8227 125.481 14.703C125.481 11.002 128.517 8.42758 133.52 8.42758C137.911 8.42758 141.193 10.464 141.193 12.7929C141.193 14.082 140.166 15.0785 138.894 15.0785C138.114 15.0785 137.458 14.703 136.76 14.0386C136.061 13.3743 135.035 12.6666 133.353 12.6666C131.546 12.6666 130.769 13.4573 130.769 14.5369C130.769 15.6996 131.55 16.4903 134.789 17.3208C139.96 18.6098 142.091 20.7726 142.091 24.0114C142.091 27.6294 139.218 30.453 133.72 30.453C128.92 30.453 125.349 28.2071 125.349 25.7554L125.36 25.7626Z" fill="#1CB600"/>
<path d="M149.606 3.06566C151.331 3.06566 152.271 4.06222 152.271 5.72676V9.05223H155.842C157.235 9.05223 158.059 9.8827 158.059 11.3378C158.059 12.7929 157.239 13.6234 155.842 13.6234H152.271V23.3904C152.271 25.0947 153.009 25.759 153.996 25.759C154.898 25.759 155.514 25.1777 156.377 25.1777C157.485 25.1777 158.429 26.0912 158.429 27.3802C158.429 29.2939 156.337 30.4566 153.465 30.4566C149.446 30.4566 146.944 28.0879 146.944 23.8056V13.6198H145.219C143.826 13.6198 143.003 12.7893 143.003 11.3342C143.003 9.87909 143.822 9.04862 145.219 9.04862H146.944V5.72676C146.944 4.06222 147.888 3.06566 149.609 3.06566H149.606Z" fill="#1CB600"/>
<path d="M169.793 8.42758C175.455 8.42758 179.229 12.2116 179.229 17.6566C179.229 19.7761 178.121 20.816 176.439 20.816H164.993C165.364 24.015 167.373 25.8024 170.203 25.8024C171.76 25.8024 172.665 25.2607 173.731 24.3906C174.429 23.849 175.085 23.4337 175.904 23.4337C177.134 23.4337 178.16 24.3906 178.16 25.7193C178.16 28.0482 174.878 30.4566 170.203 30.4566C163.764 30.4566 159.495 26.1345 159.495 19.4403C159.495 12.746 163.721 8.42397 169.793 8.42397V8.42758ZM174.265 17.2413C174.019 14.4575 172.255 12.876 169.793 12.876C167.331 12.876 165.321 14.6236 164.993 17.2413H174.265Z" fill="#1CB600"/>
<path d="M184.974 8.68034C186.698 8.68034 187.639 9.6769 187.639 11.3414V12.421H187.682C188.829 9.88632 190.757 8.8031 192.688 8.8031C194.413 8.8031 195.315 9.6769 195.315 11.2151C195.315 12.7532 194.413 13.6667 192.403 13.6667H191.83C189.203 13.6667 187.646 15.0388 187.646 18.6531V27.5066C187.646 29.1278 186.702 30.1244 184.981 30.1244C183.26 30.1244 182.315 29.1278 182.315 27.5066V11.3378C182.315 9.6769 183.26 8.67673 184.981 8.67673L184.974 8.68034Z" fill="#1CB600"/>
<path d="M68.6613 37.5769C68.6613 36.1218 69.4809 35.2913 70.8778 35.2913H82.2417C83.881 35.2913 84.95 36.3709 84.95 37.9921C84.95 39.0717 84.4974 39.9058 83.3928 41.2743L74.9829 51.4601V51.5034H83.1041C84.4974 51.5034 85.3206 52.3339 85.3206 53.789C85.3206 55.2442 84.501 56.0746 83.1041 56.0746H70.9597C69.3205 56.0746 68.2515 54.995 68.2515 53.3738C68.2515 52.2509 68.7433 51.5865 69.4809 50.673L78.3825 39.9058V39.8625H70.8742C69.4809 39.8625 68.6577 39.032 68.6577 37.5769H68.6613Z" fill="#1CB600"/>
<path d="M96.9697 34.6667C103.163 34.6667 107.514 39.0717 107.514 45.683C107.514 52.2942 103.167 56.6993 96.9697 56.6993C90.7727 56.6993 86.4253 52.2942 86.4253 45.683C86.4253 39.0717 90.7727 34.6667 96.9697 34.6667ZM96.9697 52.0848C99.7991 52.0848 102.016 49.8389 102.016 45.683C102.016 41.527 99.7991 39.2812 96.9697 39.2812C94.1402 39.2812 91.9238 41.527 91.9238 45.683C91.9238 49.8389 94.1402 52.0848 96.9697 52.0848Z" fill="#1CB600"/>
<path d="M120.396 34.6667C126.589 34.6667 130.94 39.0717 130.94 45.683C130.94 52.2942 126.593 56.6993 120.396 56.6993C114.199 56.6993 109.852 52.2942 109.852 45.683C109.852 39.0717 114.199 34.6667 120.396 34.6667ZM120.396 52.0848C123.225 52.0848 125.442 49.8389 125.442 45.683C125.442 41.527 123.225 39.2812 120.396 39.2812C117.567 39.2812 115.35 41.527 115.35 45.683C115.35 49.8389 117.567 52.0848 120.396 52.0848Z" fill="#1CB600"/>
</svg>
