<svg width="253" height="82" viewBox="0 0 253 82" fill="none" xmlns="http://www.w3.org/2000/svg">
<path d="M65.6595 18.5396V4.75693C65.6595 4.68507 65.6595 4.61321 65.6595 4.54135C65.6595 4.39763 65.6595 4.25391 65.6595 4.13894C65.5032 2.18436 64.6369 0.934007 62.9894 0.316016C62.4638 0.114809 61.9525 0.0142059 61.4697 0.0142059C60.4755 0.0142059 59.5523 0.445363 58.7001 1.2933C56.0442 3.95211 53.3457 6.68277 50.8176 9.25533C45.108 15.0616 39.5121 20.7528 33.8878 26.516C33.6322 26.7747 33.3055 27.0477 32.8368 27.0621C32.3681 27.0621 32.0415 26.789 31.7858 26.516C26.6586 21.2846 21.503 16.0532 16.5178 10.9943L12.1292 6.53905C11.5327 5.93543 10.9219 5.31744 10.3254 4.69944C9.20341 3.56406 8.06718 2.38557 6.93096 1.25019C6.1214 0.430991 5.21242 0.0285778 4.23243 0.0285778C4.0904 0.0285778 3.93417 0.0285778 3.79214 0.0573216C1.37767 0.34476 0 1.95441 0 4.46949V18.8126C0 29.7497 0 40.701 0 51.6524C0 53.2477 0.0284056 54.958 0.198839 56.6395C0.639125 60.7067 1.80375 64.6446 3.66432 68.3238C6.02198 72.966 9.31703 76.9038 13.4642 80.0369C14.3164 80.6693 15.1686 80.9855 16.1202 80.9855C16.3616 80.9855 16.5889 80.9711 16.8445 80.928C18.8897 80.5974 20.4378 78.4848 20.168 76.4296C19.9975 75.1648 19.472 74.245 18.5062 73.5265C16.7167 72.2042 15.268 70.8533 14.075 69.3873C10.155 64.5871 8.1524 59.0971 8.1382 53.0896C8.12399 44.0066 8.1382 34.7798 8.1382 25.8549V25.8118C8.1382 22.8511 8.1382 19.9049 8.1382 16.9587C8.1382 16.9156 8.1382 16.8868 8.1382 16.8581C8.1382 16.8581 8.1382 16.7718 8.1382 16.7287C8.12399 16.3551 8.28022 16.1107 8.40805 15.967C8.60689 15.7514 8.89094 15.6365 9.175 15.6365C9.45905 15.6365 9.74311 15.7658 9.94195 15.9958L10.0414 16.0964C14.146 20.2642 18.492 24.6907 22.7813 29.0742C23.6334 29.9509 24.6134 30.382 25.7354 30.382C28.0931 30.382 30.4366 30.382 32.78 30.382C35.1235 30.382 37.5806 30.382 39.924 30.382C41.0461 30.382 41.9976 29.9652 42.8356 29.1029C44.8098 27.1052 46.7698 25.1075 48.7298 23.0955C51.0448 20.7528 53.3457 18.3959 55.6607 16.0532C55.6749 16.0389 55.6891 16.0101 55.7033 15.9958C55.8312 15.8233 56.0868 15.5359 56.5129 15.4496C56.5555 15.4496 56.6123 15.4352 56.6691 15.4352C56.939 15.4352 57.2088 15.5933 57.3366 15.8377C57.5497 16.2113 57.5213 16.5706 57.5071 16.8006C57.5071 16.8006 57.5071 16.8868 57.5071 16.9156C57.5071 28.528 57.5071 40.8879 57.5071 53.2333C57.5071 54.7136 57.365 56.1796 57.081 57.588C55.7743 64.2566 52.4225 69.6317 47.1248 73.5696C45.3353 74.9062 44.8808 77.4356 46.1306 79.2177C46.8124 80.1806 47.7924 80.8274 48.9002 81.0142C49.1132 81.0573 49.3405 81.0717 49.5535 81.0717C50.3773 81.0717 51.1584 80.813 51.826 80.3244C56.0442 77.2344 59.4103 73.3109 61.8105 68.64C64.3528 63.7248 65.6311 58.2779 65.6311 52.4573C65.6311 41.1753 65.6311 29.6922 65.6311 18.5971L65.6595 18.5396Z" fill="#763CBC"/>
<path d="M50.8886 57.3582C51.5277 56.0504 51.0164 54.4551 49.7239 53.794C48.4457 53.1329 46.8692 53.6646 46.2301 54.9725C45.2501 56.9558 43.6594 58.3499 41.7278 58.8673C39.8246 59.3847 37.7936 59.011 36.0041 57.8181L40.0661 51.8682C40.0661 51.8682 40.0945 51.8394 40.0945 51.825V51.8107C40.5347 51.1352 40.7904 50.316 40.7904 49.4537C40.7904 47.0823 38.9156 45.1709 36.5864 45.1709C34.8252 45.1709 33.3197 46.2775 32.6948 47.8584C32.0699 46.2919 30.5644 45.1709 28.8032 45.1709C26.4882 45.1709 24.5992 47.0823 24.5992 49.4537C24.5992 50.3304 24.8549 51.1352 25.2952 51.8107V51.825C25.2952 51.8394 25.3236 51.8538 25.3236 51.8682L29.3856 57.8181C27.596 59.011 25.565 59.3847 23.6618 58.8673C21.7303 58.3499 20.1395 56.9558 19.1596 54.9725C18.5204 53.6646 16.9439 53.1329 15.6657 53.794C14.3732 54.4551 13.8619 56.0504 14.501 57.3582C16.1486 60.7212 18.9323 63.0782 22.3126 64.0124C23.321 64.2855 24.3436 64.4292 25.3804 64.4292C27.7806 64.4292 30.1667 63.6819 32.3113 62.2303C32.4534 62.1441 32.567 62.0291 32.6806 61.9285C32.7942 62.0435 32.9221 62.1441 33.0499 62.2303C35.1945 63.6819 37.5806 64.4292 39.9808 64.4292C41.0034 64.4292 42.026 64.2999 43.0486 64.0124C46.4289 63.0926 49.2126 60.7356 50.8602 57.3582H50.8886Z" fill="#763CBC"/>
<path d="M93.3549 10.319C95.5847 10.319 96.792 11.5981 96.792 13.7539V14.8318H96.8488C98.6525 11.67 101.607 10.0172 104.944 10.0172C108.282 10.0172 111.137 11.8424 112.571 15.3204H112.628C114.432 11.8856 117.599 10.0172 121.306 10.0172C126.447 10.0172 130.041 13.6533 130.041 20.6237V34.6506C130.041 36.7921 128.819 38.0855 126.604 38.0855C124.388 38.0855 123.167 36.8064 123.167 34.6506V21.2417C123.167 17.7637 121.263 15.8809 118.565 15.8809C115.653 15.8809 113.423 18.0224 113.423 22.5782V34.6363C113.423 36.7777 112.202 38.0712 109.986 38.0712C107.771 38.0712 106.549 36.7921 106.549 34.6363V21.2417C106.549 17.7637 104.646 15.8809 101.948 15.8809C99.036 15.8809 96.8062 18.0224 96.8062 22.5782V34.6363C96.8062 36.7777 95.5421 38.0712 93.3691 38.0712C91.1961 38.0712 89.932 36.7921 89.932 34.6363V13.7395C89.932 11.5981 91.1535 10.3047 93.3691 10.3047L93.3549 10.319Z" fill="#1CB600"/>
<path d="M147.823 21.3566H150.89V20.3362C150.89 17.4906 149.3 15.8953 146.502 15.8953C144.073 15.8953 142.639 17.0163 141.687 17.9361C140.892 18.6835 139.997 19.3877 138.775 19.3877C137.128 19.3877 135.708 18.0511 135.708 16.3408C135.708 13.179 140.579 10.0172 146.928 10.0172C153.603 10.0172 157.679 13.4521 157.679 19.7182V34.665C157.679 36.8064 156.458 38.0999 154.285 38.0999C152.112 38.0999 150.89 36.8208 150.89 34.665V33.1128H150.834C149.243 36.5908 146.118 38.4161 142.312 38.4161C137.185 38.4161 133.847 35.1537 133.847 30.2241C133.847 24.9209 137.824 21.3854 147.823 21.3854V21.3566ZM144.755 33.1991C148.305 33.1991 150.89 30.684 150.89 26.8323V25.97H148.036C142.312 25.97 140.679 27.6372 140.679 29.8217C140.679 32.0062 142.156 33.1991 144.755 33.1991Z" fill="#1CB600"/>
<path d="M161.756 32.3368C161.756 30.6696 163.02 29.3331 164.724 29.3331C165.732 29.3331 166.57 29.8217 167.692 30.8277C168.914 31.9056 170.448 32.9117 172.876 32.9117C175.305 32.9117 176.427 31.8338 176.427 30.2816C176.427 28.7294 175.362 27.709 171.499 26.8036C164.667 25.1365 161.912 22.0896 161.912 18.0799C161.912 13.3084 165.832 9.98848 172.28 9.98848C177.947 9.98848 182.179 12.6185 182.179 15.6079C182.179 17.275 180.858 18.5541 179.211 18.5541C178.202 18.5541 177.364 18.0655 176.455 17.2175C175.561 16.3552 174.226 15.4498 172.067 15.4498C169.737 15.4498 168.729 16.4702 168.729 17.8643C168.729 19.359 169.737 20.3794 173.913 21.4573C180.588 23.1244 183.33 25.8982 183.33 30.0804C183.33 34.7369 179.623 38.3873 172.535 38.3873C166.343 38.3873 161.741 35.4986 161.741 32.3368H161.756Z" fill="#1CB600"/>
<path d="M193.03 3.08996C195.26 3.08996 196.467 4.36906 196.467 6.52485V10.8077H201.069C202.873 10.8077 203.924 11.8856 203.924 13.7539C203.924 15.6223 202.858 16.7001 201.069 16.7001H196.467V29.2899C196.467 31.4888 197.419 32.3368 198.697 32.3368C199.862 32.3368 200.657 31.5894 201.765 31.5894C203.199 31.5894 204.406 32.7679 204.406 34.4351C204.406 36.8927 201.708 38.4017 198.001 38.4017C192.817 38.4017 189.579 35.3549 189.579 29.8361V16.6858H187.349C185.545 16.6858 184.494 15.6079 184.494 13.7395C184.494 11.8712 185.559 10.7933 187.349 10.7933H189.579V6.51048C189.579 4.36906 190.8 3.07559 193.016 3.07559L193.03 3.08996Z" fill="#1CB600"/>
<path d="M219.078 10.0028C226.378 10.0028 231.25 14.8749 231.25 21.8884C231.25 24.6191 229.815 25.9557 227.656 25.9557H212.886C213.368 30.0804 215.953 32.3799 219.603 32.3799C221.62 32.3799 222.785 31.69 224.163 30.5547C225.057 29.8648 225.909 29.3187 226.975 29.3187C228.565 29.3187 229.886 30.5547 229.886 32.2649C229.886 35.2686 225.654 38.373 219.618 38.373C211.309 38.373 205.798 32.7967 205.798 24.1735C205.798 15.5504 211.252 9.97411 219.078 9.97411V10.0028ZM224.844 21.3566C224.532 17.7637 222.245 15.7372 219.078 15.7372C215.911 15.7372 213.312 17.9936 212.886 21.3566H224.844Z" fill="#1CB600"/>
<path d="M238.664 10.319C240.893 10.319 242.101 11.5981 242.101 13.7539V15.148H242.157C243.635 11.8856 246.134 10.4915 248.62 10.4915C250.85 10.4915 252.014 11.6125 252.014 13.5958C252.014 15.5791 250.85 16.7576 248.25 16.7576H247.512C244.117 16.7576 242.115 18.5254 242.115 23.1819V34.5932C242.115 36.6771 240.893 37.9706 238.678 37.9706C236.462 37.9706 235.241 36.6915 235.241 34.5932V13.7395C235.241 11.5981 236.462 10.3047 238.678 10.3047L238.664 10.319Z" fill="#1CB600"/>
<path d="M88.597 47.5566C88.597 45.6883 89.6622 44.6104 91.4517 44.6104H106.109C108.225 44.6104 109.603 46.0044 109.603 48.0884C109.603 49.4824 109.021 50.546 107.586 52.3137L96.7352 65.4352V65.4927H107.217C109.021 65.4927 110.072 66.5706 110.072 68.439C110.072 70.3073 109.006 71.3852 107.217 71.3852H91.5511C89.4349 71.3852 88.0573 69.9911 88.0573 67.9072C88.0573 66.4556 88.6964 65.6077 89.648 64.4292L101.138 50.5603V50.5028H91.4517C89.648 50.5028 88.597 49.425 88.597 47.5566Z" fill="#1CB600"/>
<path d="M125.112 43.8055C133.108 43.8055 138.719 49.4824 138.719 58.005C138.719 66.5275 133.108 72.2044 125.112 72.2044C117.116 72.2044 111.506 66.5275 111.506 58.005C111.506 49.4824 117.116 43.8055 125.112 43.8055ZM125.112 66.2544C128.762 66.2544 131.617 63.3657 131.617 58.005C131.617 52.6443 128.762 49.7555 125.112 49.7555C121.462 49.7555 118.607 52.6443 118.607 58.005C118.607 63.3657 121.462 66.2544 125.112 66.2544Z" fill="#1CB600"/>
<path d="M155.336 43.8055C163.332 43.8055 168.942 49.4824 168.942 58.005C168.942 66.5275 163.332 72.2044 155.336 72.2044C147.34 72.2044 141.73 66.5275 141.73 58.005C141.73 49.4824 147.34 43.8055 155.336 43.8055ZM155.336 66.2544C158.986 66.2544 161.841 63.3657 161.841 58.005C161.841 52.6443 158.986 49.7555 155.336 49.7555C151.686 49.7555 148.831 52.6443 148.831 58.005C148.831 63.3657 151.686 66.2544 155.336 66.2544Z" fill="#1CB600"/>
</svg>
